<?xml version="1.0" encoding="utf-8"?>
<!DOCTYPE svg PUBLIC "-//W3C//DTD SVG 1.1//EN" "http://www.w3.org/Graphics/SVG/1.1/DTD/svg11.dtd">
<svg version="1.1" id="Layer_1" xmlns="http://www.w3.org/2000/svg" xmlns:xlink="http://www.w3.org/1999/xlink" x="0px" y="0px"
	 viewBox="0 0 1920 1915" enable-background="new 0 0 1920 1915" xml:space="preserve">
<g id="_x23_ffffffff">
</g>
<g>
	<path fill="#ED1E79" stroke="#ED1E79" stroke-width="0.0938" d="M1555.72,21.27c20.1801,8.54,39.74,18.55,59.8401,27.3
		c1.5299,0.7,3.1799,1.3,4.47,2.46c0.5599,2.62,0.4,5.36,0.08,8c-1.1799,1.43-3.04,1.89-4.6899,2.44
		c-19.15,5.6-38.7101,9.65-58.2001,13.9c-20.08,4.21-40.1799,8.3-60.3099,12.29c0.36,0.77,0.9099,1.35,1.6599,1.74
		c94.01,43.14,188.9,84.44,281.51,130.57c2.2201,1.13,4.3501,2.45,6.4701,3.8c0.12,2.62,0.09,5.24-0.05,7.85
		c-10.96-1.63-21.6899-4.48-32.53-6.67c-86.6599-18.65-173.2899-37.44-259.97-55.97c-14.02-2.91-28.08-5.59-42.0601-8.63
		c15.7101,8.13,31.91,15.3,47.9801,22.68c79.1499,35.88,159.1499,69.83,238.14,106.06c7.3999,3.44,15.0099,6.63,21.75,11.32
		c2.8099,2.61,1.5599,6.96,0.87,10.25c-11.17,0.2-22.0801-2.68-32.8-5.44c-42.0601-10.53-83.5699-23.06-124.98-35.86
		c-40.02-12.29-79.9601-24.87-119.85-37.61c-5.0901-1.47-10.05-3.39-15.2001-4.61c39.34,16.81,78.55,33.95,117.55,51.54
		c35.97,16.42,72.0699,32.63,107.12,50.97c8.1899,4.06,16.62,8.11,23.38,14.4c3.24,2.99,2.5,7.83,1.6899,11.7
		c-70.1799-17.68-140.24-35.87-210.6599-52.58c-14.92-3.48-29.78-7.29-44.88-9.91c18.6899,7.98,36.99,16.86,55.5299,25.18
		c48.75,22.55,97.65,44.79,146.0601,68.09c3.39,1.82,7.28,3.07,9.84,6.11c-0.13,2.24-0.1699,4.49-0.13,6.74
		c-4.3199,2.63-9.5499,2.48-14.34,3.57c-25.01,4.95-50.04,9.79-75.05,14.73c12.8401,5.97,26,11.28,38.64,17.73
		c3.2001,2.3,6.9601-0.7,10.49,0.4c7.04,1.37,11.15,8.03,14.17,13.95c8.25,17.68,11.15,37.25,18.8,55.17
		c7.7799,19.4,18.2599,38.65,18.35,60.08c0.3099,12.76-5.42,25.1-14.3201,34.05c-10.59,11.34-24.45,18.82-35.6599,29.45
		c-1.02,0.78-1.38,1.99-1.77,3.15c-3.2001-6.28-8.88-10.67-13.61-15.71c-29.6901-30.26-57.64-62.18-87.9601-91.82l1.2101,0.66
		c5.1399-8.67,14.58-13.05,21.36-20.17c5.24-4.46,8.6899-10.69,14.39-14.62c3.85-3.08,6.5399-7.39,10.5499-10.3
		c7.27-4.92,13.4501-11.25,19.41-17.65c2.15-2.19,3.73-5,6.38-6.66c5.73-3.4,9.41-9.17,13.6799-14.1
		c-11.9199-5.66-24.0199-10.9-36.1-16.19c-3.64-1.74-7.52-3.02-10.9199-5.18c-0.2301-2.63-1.87-8.2,2.24-8.4
		c29.9199-5.64,59.76-11.74,89.6899-17.36c-37.2999-17.47-74.48-35.21-111.96-52.31c-38.41-17.67-76.88-35.21-115.39-52.68
		c-0.05-2.84-0.04-5.68,0.02-8.52c3.89-0.54,7.7899,0.1,11.5499,1.14c44.3301,9,88.2201,20.02,132.12,30.87
		c24.6101,6.14,49.1901,12.42,73.79,18.61c16.66,4.03,33.14,8.83,49.9301,12.34c-34.6801-19.09-70.8-35.41-106.8101-51.8
		c-70.95-31.96-142.38-62.84-214.2-92.79c-4.05-1.11-1.38-5.98-1.66-8.87c42.8,14.13,85.6801,28.05,128.66,41.68
		c64.9199,20.44,129.6,41.74,195.27,59.74c14.51,3.79,28.99,7.9,43.84,10.16c-10.51-4.18-20.52-9.48-30.88-14.01
		c-74.65-33.6-149.8-66.09-224.55-99.48c-19.73-8.95-39.35-18.2-58.34-28.64c-2.0599-1.27-4.3199-2.41-5.76-4.4
		c-0.6799-2.64-0.25-5.4-0.2-8.09c9.72,0.88,19.0699,3.97,28.6599,5.7c47.26,10.2,94.54,20.37,141.8,30.59
		c44.99,9.56,89.89,19.58,134.9401,28.86c7.7899,1.4,15.46,3.57,23.34,4.45c-91.23-42.76-182.85-84.75-274.5801-126.45
		c-0.0199-2.62,0-5.23,0.03-7.85c35.79-7.29,71.7001-14.07,107.26-22.45c6.76-1.76,13.79-2.83,20.29-5.45
		c-18.14-8.85-36.72-16.82-54.8201-25.73C1555.23,26.27,1555.55,23.77,1555.72,21.27z"/>
	<path fill="#ED1E79" stroke="#ED1E79" stroke-width="0.0938" d="M1063.39,730.36c7.61-7.6,20.4299-7.7,29.01-1.64
		c23.13,23.86,46.0399,47.9301,68.85,72.1c49.88,52.32,99.4399,104.93,149.34,157.23c6.28,7.16,13.35,13.59,19.6,20.79
		c12,12.33,23.6101,25.02,35.6201,37.34c6.37,7.29,13.5199,13.85,19.8999,21.1301c6.5601,7.09,13.52,13.7999,19.9301,21.0399
		c2.5499,3.05,6.04,5.39,7.92,8.97c-0.8101,3.4501,2.12,6.2201,2.1299,9.6101c0.92,7.21-3.75,13.4299-8.36,18.4199
		c-5.0399,4.98-10.6599,9.34-16.35,13.55c-15.4199,11.0499-28.8099,24.58-43.1799,36.9
		C1144.67,1326.02,936.85,1500.87,731.97,1679.1c-27.65,24.28-55.65,48.17-82.8799,72.9301c-29.02,26.7-57.17,54.4199-87.8701,79.23
		c-14.37,11.33-29.0099,22.89-46.17,29.73c-18.55,7.66-39.2,10.12-59.03,6.99c-23.15-3.4199-44.88-13.22-64.61-25.53
		c-30.17-18.8999-56.17-43.6399-80.26-69.6699c-24.54-27.0701-49.73-54.16-67.9-86.1c-9.84-17.3301-17.35-36.1001-21.31-55.66
		c-0.38-6.67-0.1-13.37-0.15-20.04c1.92-20.4,9.12-40.0699,19.5-57.66c2.02-3.2799,3.64-6.9199,6.57-9.5099
		c12.87-11.78,25.5-23.8301,37.3-36.6801c4.31-4.35,8.07-9.24,12.85-13.09c5.64-4.66,10.88-9.8,15.58-15.41
		c4.74-5.9301,11.01-10.3199,16.32-15.7c6.51-6.17,11.84-13.4601,18.4-19.5901c110.12-108.5499,219.27-218.09,328.43-327.61
		c56-56.01,112.02-111.99,168.32-167.69c24.84-24.85,50.03-49.32,75.13-73.9C968.6,826.9,1016.22,778.84,1063.39,730.36z"/>
	<path fill="#262626" stroke="#262626" stroke-width="0.0938" d="M1505.0699,532.01c8.05-4.08,16.7401-8.62,26.02-7.88
		c30.3201,29.64,58.27,61.56,87.9601,91.82c4.73,5.04,10.4099,9.43,13.61,15.71c2.72,3.86,3.48,9.1,1.5399,13.46
		c-2.7799,6.2-8.0299,10.74-12.8999,15.27c-15.1001,13.17-29.7201,27.1-41.7101,43.22c-45.6599,63.02-78.9099,136.08-89.88,213.49
		c-0.99,6.58-1.6499,13.21-2.39,19.82c-1.11,8.61-3.9299,17.19-2.6799,25.95c1.71,10.66,3.7999,21.3,4.4399,32.1
		c0.3201,6.54-0.74,13.32-4.0299,19.07c-4.2201,7.4901-10.8,13.21-16.6101,19.41c-9.1599,9.4701-16.83,20.51-27.5499,28.37
		c-7.58,5.64-18.2001,9.87-27.33,5.5c-1.88-3.58-5.3701-5.9199-7.92-8.97c-6.41-7.24-13.37-13.95-19.9301-21.0399
		c-6.38-7.28-13.5299-13.8401-19.8999-21.1301c-12.01-12.32-23.6201-25.01-35.6201-37.34c-6.25-7.2-13.3199-13.63-19.6-20.79
		c-49.9-52.3-99.46-104.91-149.34-157.23c-22.8101-24.17-45.72-48.24-68.85-72.1c-2.5601-5.1-2.24-11.22,0.0499-16.34
		c3.5801-8.14,10.01-14.55,16.5-20.45c8.6801-8.03,18.67-14.53,27.1101-22.84c6.58-6.2,15.1499-10.02,23.99-11.63
		c11.48-2.16,23.21-1.31,34.7899-0.71c21.4601,1.67,42.99-0.47,64.28-3.1c44.5-5.97,88.23-18.78,128.26-39.2401
		c18.96-9.64,37.0599-21.05,53.62-34.43C1461.22,562.58,1481.64,545.02,1505.0699,532.01z"/>
</g>
</svg>
